<?xml version="1.0" standalone="no"?>
<!DOCTYPE svg PUBLIC "-//W3C//DTD SVG 20010904//EN"
 "http://www.w3.org/TR/2001/REC-SVG-20010904/DTD/svg10.dtd">
<svg version="1.0" xmlns="http://www.w3.org/2000/svg"
 width="2048.000000pt" height="2048.000000pt" viewBox="0 0 2048.000000 2048.000000"
 preserveAspectRatio="xMidYMid meet">

<g transform="translate(0.000000,2048.000000) scale(0.100000,-0.100000)"
fill="#000000" stroke="none">
<path d="M5790 20474 c-334 -22 -516 -43 -750 -85 -1004 -183 -1928 -628
-2695 -1299 -155 -136 -819 -800 -955 -955 -483 -553 -856 -1198 -1087 -1880
-155 -461 -237 -852 -285 -1370 -16 -171 -16 -685 0 -850 88 -903 365 -1810
878 -2864 63 -129 114 -238 114 -243 0 -5 -62 -79 -138 -166 -75 -86 -200
-231 -276 -322 -77 -91 -146 -173 -154 -182 -18 -21 -35 1 306 -396 133 -156
247 -291 253 -301 9 -13 -2 -43 -54 -146 -420 -838 -720 -1690 -853 -2415 -65
-356 -88 -617 -88 -980 0 -372 23 -640 85 -980 183 -1004 628 -1927 1299
-2695 154 -177 822 -840 994 -988 759 -651 1660 -1082 2636 -1262 357 -65 619
-89 1000 -89 296 0 430 8 700 44 800 106 1741 420 2692 896 70 35 132 64 138
64 6 0 81 -62 168 -138 86 -75 231 -200 322 -276 91 -77 173 -146 182 -154 21
-18 -1 -35 396 306 156 133 291 247 301 253 13 9 43 -2 146 -54 954 -478 1894
-790 2695 -897 270 -36 404 -44 700 -44 381 0 643 24 1000 89 976 180 1877
612 2636 1262 175 151 832 803 989 983 675 775 1116 1683 1300 2680 65 357 89
619 89 1000 0 296 -8 427 -45 705 -103 788 -420 1740 -896 2690 -52 103 -63
133 -54 146 6 10 120 145 253 301 341 397 324 375 306 396 -8 9 -77 91 -154
182 -76 91 -201 236 -276 322 -76 87 -138 162 -138 168 0 6 29 68 64 138 474
947 792 1900 895 2687 37 278 45 409 45 705 0 381 -24 643 -89 1000 -180 976
-611 1877 -1262 2636 -148 172 -811 840 -988 994 -768 671 -1691 1116 -2695
1299 -340 62 -608 85 -980 85 -296 0 -428 -8 -704 -44 -790 -105 -1741 -421
-2691 -897 -103 -52 -133 -63 -146 -54 -10 6 -145 120 -301 253 -397 341 -375
324 -396 306 -9 -8 -91 -77 -182 -154 -91 -76 -236 -201 -322 -276 -87 -76
-161 -138 -166 -138 -5 0 -114 51 -243 114 -1050 511 -1969 793 -2854 876
-114 11 -569 21 -665 14z m4280 -4350 c19 -4 27 -10 20 -14 -12 -7 48 -12 370
-30 91 -5 179 -14 195 -20 16 -6 79 -15 139 -21 61 -5 131 -16 156 -24 25 -8
83 -19 130 -24 47 -5 101 -16 120 -24 19 -8 64 -18 100 -22 36 -4 78 -14 93
-22 16 -8 56 -19 90 -24 34 -5 83 -18 109 -29 26 -11 59 -20 75 -20 16 0 45
-9 66 -20 20 -11 47 -20 59 -20 13 0 46 -11 73 -25 28 -13 61 -25 74 -25 13 0
38 -9 55 -19 17 -10 47 -22 66 -26 19 -4 49 -16 66 -26 17 -10 39 -19 49 -19
10 0 32 -9 49 -19 17 -11 50 -24 74 -30 23 -7 42 -16 42 -21 0 -5 19 -14 42
-21 23 -6 53 -19 66 -30 14 -10 32 -19 41 -19 10 0 32 -11 51 -25 19 -14 41
-25 50 -25 9 0 25 -9 35 -20 10 -11 26 -20 35 -20 9 0 31 -11 50 -25 19 -14
39 -25 45 -25 7 0 20 -9 30 -20 10 -11 24 -20 31 -20 7 0 26 -11 42 -25 17
-14 36 -25 44 -25 9 0 27 -11 42 -25 15 -14 32 -25 39 -25 7 0 17 -8 24 -19 6
-10 23 -21 38 -25 25 -6 42 -19 89 -63 13 -13 28 -23 33 -23 5 0 20 -11 33
-25 13 -14 28 -25 33 -25 5 0 61 -44 125 -98 64 -54 128 -107 141 -117 48 -39
337 -331 366 -370 17 -21 38 -48 48 -60 10 -11 24 -27 31 -35 45 -51 116 -140
116 -146 0 -3 11 -20 25 -38 14 -17 32 -40 40 -51 8 -11 28 -37 45 -59 16 -21
30 -43 30 -49 0 -6 7 -17 15 -26 21 -22 75 -104 75 -115 0 -4 11 -21 25 -38
14 -16 25 -35 25 -42 0 -7 9 -21 20 -31 11 -10 20 -26 20 -35 0 -9 9 -25 19
-34 11 -10 22 -29 26 -43 3 -15 15 -38 26 -51 10 -14 19 -30 19 -37 0 -7 8
-23 18 -36 11 -13 24 -39 31 -58 6 -19 17 -42 24 -50 8 -9 19 -35 26 -58 6
-24 16 -43 20 -43 5 0 14 -20 20 -44 6 -24 17 -49 25 -55 8 -7 18 -27 21 -44
4 -18 15 -45 25 -62 9 -16 20 -47 23 -69 4 -21 13 -46 21 -55 9 -10 19 -33 22
-52 4 -19 15 -47 24 -64 10 -16 21 -50 25 -75 4 -25 16 -61 26 -80 11 -19 19
-48 19 -65 0 -17 9 -47 20 -67 11 -20 24 -64 29 -98 6 -34 15 -68 21 -75 6 -8
16 -43 21 -80 5 -36 16 -79 24 -94 8 -16 18 -64 24 -107 5 -43 16 -95 24 -114
8 -19 18 -68 21 -108 4 -40 14 -91 21 -113 8 -21 19 -92 25 -157 5 -64 16
-138 24 -164 8 -26 18 -109 22 -185 3 -76 13 -172 20 -213 24 -128 37 -828 25
-1275 -5 -214 -15 -408 -21 -430 -5 -22 -15 -114 -20 -205 -6 -91 -17 -191
-26 -223 -8 -31 -17 -94 -21 -138 -5 -68 -10 -86 -35 -117 -29 -36 -112 -82
-149 -82 -22 0 -84 36 -114 66 -33 32 -48 88 -41 143 3 25 10 101 16 167 5 67
14 134 20 149 6 15 15 114 20 219 6 105 17 274 26 376 18 213 16 821 -4 1025
-6 66 -16 201 -21 300 -6 99 -15 196 -20 215 -6 19 -15 94 -21 165 -6 72 -17
151 -25 177 -7 26 -17 80 -20 120 -4 40 -15 102 -25 138 -10 36 -21 94 -25
129 -3 35 -15 86 -26 113 -10 27 -19 63 -19 81 -1 18 -8 50 -16 72 -9 22 -21
70 -28 107 -7 37 -18 73 -25 81 -6 8 -16 40 -22 72 -6 32 -17 68 -24 79 -8 12
-17 41 -21 66 -3 25 -14 59 -24 75 -10 17 -21 46 -25 65 -4 19 -13 42 -21 51
-8 8 -18 37 -23 63 -5 26 -15 54 -24 64 -8 9 -18 34 -22 54 -4 21 -13 42 -21
49 -8 6 -19 30 -25 52 -6 23 -19 52 -30 65 -10 14 -19 35 -19 47 0 12 -9 30
-20 40 -11 10 -20 26 -20 35 0 9 -11 31 -25 50 -14 19 -25 42 -25 52 0 10 -9
26 -20 35 -11 10 -23 32 -26 50 -3 18 -13 37 -20 41 -14 8 -37 44 -68 108 -8
17 -22 36 -30 44 -9 7 -16 18 -16 25 0 8 -11 27 -25 43 -14 17 -25 33 -25 37
0 4 -10 20 -22 35 -13 16 -34 45 -48 65 -14 20 -43 60 -66 88 -22 29 -64 83
-94 121 -111 145 -435 468 -563 563 -21 15 -76 58 -122 95 -46 38 -94 72 -107
78 -13 6 -48 28 -78 50 -30 22 -61 40 -68 40 -7 0 -15 7 -19 15 -3 9 -20 23
-37 31 -17 8 -53 28 -81 44 -27 16 -64 36 -81 44 -17 8 -36 22 -44 30 -7 9
-20 16 -30 16 -9 0 -28 9 -42 19 -13 11 -38 23 -54 27 -16 4 -38 14 -49 24
-11 10 -33 20 -49 24 -16 4 -41 16 -54 27 -14 10 -33 19 -43 19 -10 0 -39 11
-65 25 -26 14 -55 25 -64 25 -10 0 -29 9 -43 20 -14 11 -36 20 -49 20 -12 0
-45 12 -73 25 -27 14 -58 25 -69 25 -10 0 -33 8 -50 19 -17 10 -53 22 -80 26
-27 4 -65 15 -85 26 -20 10 -49 19 -66 19 -16 0 -49 9 -73 20 -24 11 -66 22
-95 26 -29 4 -72 15 -97 24 -25 9 -75 20 -112 24 -36 3 -83 13 -102 21 -20 8
-78 19 -130 25 -51 5 -107 15 -122 21 -16 6 -97 17 -181 25 -84 8 -164 19
-179 24 -56 22 -989 50 -1129 35 -27 -3 -176 -10 -330 -15 -174 -6 -307 -15
-350 -24 -38 -8 -135 -18 -215 -22 -80 -3 -165 -13 -190 -20 -25 -8 -99 -19
-165 -24 -66 -6 -142 -17 -170 -25 -27 -7 -96 -18 -153 -24 -57 -6 -112 -16
-123 -22 -11 -5 -61 -15 -112 -20 -51 -6 -121 -19 -156 -30 -35 -10 -81 -19
-102 -19 -21 0 -65 -9 -96 -19 -32 -11 -85 -23 -118 -27 -33 -3 -82 -15 -110
-24 -27 -10 -74 -21 -104 -25 -30 -3 -67 -13 -82 -20 -15 -8 -54 -18 -86 -21
-32 -4 -78 -15 -103 -24 -25 -10 -67 -20 -93 -24 -26 -4 -67 -16 -90 -26 -23
-11 -58 -20 -77 -20 -19 0 -55 -9 -79 -20 -24 -11 -62 -23 -85 -27 -22 -3 -57
-14 -76 -25 -19 -10 -46 -18 -60 -18 -14 0 -44 -9 -65 -20 -22 -11 -65 -24
-96 -29 -32 -5 -65 -14 -75 -20 -11 -5 -35 -17 -55 -26 l-36 -16 12 -47 c7
-27 16 -135 20 -242 3 -107 11 -233 16 -280 23 -210 28 -289 30 -440 l1 -163
-50 -50 c-51 -50 -51 -51 -115 -51 -58 0 -68 3 -105 35 -23 19 -46 48 -51 64
-18 55 -40 297 -51 555 -6 140 -15 280 -20 310 -13 76 -32 458 -24 495 7 34
70 105 94 105 9 0 34 9 55 20 22 11 58 23 80 27 22 3 54 13 70 23 17 10 50 21
75 25 25 4 61 16 80 26 19 11 48 19 65 19 17 0 47 9 68 20 21 11 59 23 85 27
26 3 63 14 82 23 19 9 56 20 83 23 26 4 60 13 76 21 16 9 56 20 89 25 33 5 73
16 89 24 15 8 55 18 88 22 33 4 72 13 87 21 15 8 59 18 98 24 39 6 84 17 99
24 15 8 56 17 92 21 35 4 89 15 119 25 30 10 81 21 113 24 32 4 74 13 93 21
20 8 66 17 102 21 37 3 99 14 137 24 39 10 106 21 149 25 44 4 100 14 125 21
25 8 91 19 145 24 55 5 132 16 170 25 39 8 125 19 191 24 66 5 134 15 150 21
17 6 169 18 339 26 171 8 312 17 315 19 2 3 -7 6 -20 6 -18 1 -15 3 11 9 43 9
1015 12 1060 4z m30 -704 c36 -5 135 -14 220 -20 85 -6 205 -20 265 -30 61
-11 142 -22 180 -25 39 -4 99 -15 134 -26 35 -10 81 -19 102 -19 22 0 65 -9
97 -19 32 -11 82 -23 112 -27 30 -4 73 -15 95 -25 22 -10 55 -19 73 -19 18 0
59 -11 92 -25 33 -14 71 -25 86 -25 15 0 41 -8 58 -19 17 -10 48 -22 69 -25
21 -4 53 -16 70 -27 18 -10 44 -19 58 -19 15 0 37 -9 51 -19 13 -11 41 -22 61
-26 20 -4 48 -16 61 -26 13 -11 33 -19 44 -19 10 0 30 -9 44 -19 13 -11 42
-24 65 -30 22 -6 46 -17 52 -25 7 -8 24 -17 38 -21 15 -3 38 -15 51 -26 14
-10 32 -19 42 -19 9 0 25 -9 34 -19 10 -11 30 -22 44 -26 15 -4 35 -15 45 -26
10 -10 23 -19 30 -19 7 0 22 -7 32 -15 46 -35 92 -65 120 -78 17 -8 36 -21 44
-30 7 -10 20 -17 27 -17 8 0 19 -9 26 -20 7 -11 16 -20 20 -20 9 0 130 -91
196 -148 109 -93 154 -133 247 -227 56 -55 119 -122 140 -149 22 -27 49 -58
61 -70 27 -28 113 -136 144 -181 14 -20 31 -43 39 -51 26 -28 60 -78 74 -109
8 -16 21 -36 30 -44 10 -7 17 -18 17 -23 0 -6 11 -23 25 -40 14 -16 25 -35 25
-42 0 -7 9 -21 20 -31 11 -10 20 -26 20 -35 0 -10 9 -29 20 -43 12 -14 25 -40
31 -57 6 -16 15 -30 19 -30 5 0 14 -17 21 -37 6 -21 20 -49 30 -62 11 -13 19
-31 19 -41 0 -10 9 -28 19 -42 11 -13 23 -38 27 -54 4 -16 13 -37 21 -46 8 -9
19 -36 24 -60 6 -23 16 -50 24 -58 8 -8 18 -35 24 -58 5 -24 16 -51 24 -60 8
-9 18 -34 21 -56 4 -21 16 -55 27 -75 10 -20 19 -47 19 -61 0 -14 9 -41 19
-61 11 -20 24 -62 30 -94 6 -32 16 -64 22 -71 5 -7 15 -42 20 -79 5 -36 16
-79 24 -96 9 -16 20 -63 25 -104 5 -42 14 -85 20 -96 6 -11 18 -62 25 -115 8
-52 19 -103 25 -113 5 -11 14 -69 19 -130 6 -60 17 -134 25 -163 8 -29 20
-125 25 -213 6 -88 15 -176 21 -195 35 -114 32 -1473 -4 -1645 -8 -38 -17
-130 -21 -203 -3 -73 -13 -154 -21 -180 -8 -26 -18 -97 -24 -158 -5 -61 -16
-126 -24 -145 -8 -19 -17 -65 -21 -104 -4 -38 -14 -86 -22 -105 -8 -19 -18
-68 -23 -108 -5 -39 -17 -86 -25 -103 -9 -16 -19 -53 -22 -82 -3 -29 -12 -64
-20 -80 -7 -15 -18 -53 -24 -83 -6 -31 -19 -70 -30 -87 -10 -18 -19 -46 -19
-62 0 -17 -9 -46 -19 -66 -11 -20 -23 -54 -27 -75 -3 -22 -13 -47 -21 -56 -8
-9 -19 -36 -24 -60 -6 -23 -16 -50 -24 -58 -8 -8 -18 -35 -24 -58 -5 -24 -16
-51 -24 -60 -8 -9 -17 -30 -21 -46 -4 -16 -16 -41 -27 -54 -10 -14 -19 -32
-19 -42 0 -10 -8 -28 -19 -41 -10 -13 -24 -41 -30 -61 -7 -21 -16 -38 -21 -38
-4 0 -13 -14 -19 -30 -6 -17 -19 -43 -31 -57 -11 -14 -20 -32 -20 -40 0 -8
-11 -28 -25 -45 -14 -16 -25 -35 -25 -42 0 -7 -9 -21 -20 -31 -11 -10 -20 -24
-20 -30 0 -7 -7 -19 -17 -26 -9 -8 -22 -27 -30 -44 -14 -31 -48 -81 -74 -109
-8 -8 -25 -31 -39 -51 -31 -45 -117 -153 -144 -181 -12 -12 -39 -43 -61 -69
-22 -27 -85 -94 -140 -150 -92 -93 -127 -125 -247 -227 -66 -57 -187 -148
-196 -148 -4 0 -13 -9 -20 -20 -7 -11 -17 -20 -23 -20 -6 0 -24 -11 -41 -25
-16 -14 -35 -25 -42 -25 -7 0 -21 -9 -31 -20 -10 -11 -24 -20 -31 -20 -7 0
-26 -11 -42 -25 -17 -14 -35 -25 -41 -25 -5 0 -18 -8 -28 -19 -10 -10 -29 -22
-43 -26 -14 -4 -36 -16 -49 -26 -13 -11 -29 -19 -36 -19 -7 0 -23 -9 -37 -19
-13 -11 -38 -23 -54 -27 -16 -4 -38 -14 -49 -24 -11 -10 -33 -20 -49 -24 -16
-4 -41 -16 -54 -27 -14 -10 -35 -19 -47 -19 -12 0 -33 -9 -47 -19 -13 -11 -41
-22 -61 -26 -20 -4 -41 -13 -47 -20 -7 -8 -36 -19 -65 -25 -29 -6 -59 -17 -65
-25 -6 -7 -30 -17 -53 -20 -23 -4 -59 -16 -79 -26 -21 -11 -47 -19 -58 -19
-11 0 -47 -11 -80 -25 -33 -14 -74 -25 -92 -25 -18 0 -51 -9 -73 -19 -23 -10
-68 -22 -100 -26 -33 -4 -76 -14 -95 -22 -19 -8 -70 -18 -112 -23 -43 -5 -97
-16 -121 -24 -24 -8 -93 -19 -153 -25 -61 -5 -123 -15 -140 -21 -16 -6 -99
-16 -184 -21 -85 -5 -209 -16 -275 -25 -176 -24 -992 -24 -1150 -1 -60 9 -195
21 -300 26 -104 6 -206 15 -225 21 -19 5 -98 15 -175 20 -77 6 -164 18 -194
26 -29 8 -104 19 -165 24 -62 5 -128 16 -147 24 -19 7 -72 17 -119 21 -46 4
-103 14 -125 22 -22 8 -76 19 -119 24 -44 6 -106 19 -138 30 -31 10 -78 19
-102 19 -25 0 -67 8 -93 19 -26 10 -74 21 -105 25 -32 3 -80 15 -108 26 -28
11 -67 20 -88 20 -20 0 -55 9 -78 19 -23 10 -65 22 -95 26 -30 4 -74 16 -98
26 -24 10 -58 19 -75 19 -17 0 -51 10 -76 21 -24 11 -65 23 -90 26 -61 8 -149
50 -180 86 -14 17 -28 46 -31 65 -9 52 9 479 27 622 8 69 19 262 25 429 5 167
16 374 24 459 8 85 15 206 15 267 0 144 5 164 46 206 65 65 71 69 127 68 68
-1 136 -46 155 -104 16 -49 -1 -739 -23 -945 -8 -74 -19 -254 -25 -400 -5
-146 -14 -290 -20 -320 -18 -99 -19 -93 34 -118 27 -13 74 -28 105 -34 31 -5
79 -18 106 -28 28 -10 71 -21 98 -24 26 -3 61 -12 77 -21 16 -8 60 -19 97 -25
38 -5 82 -16 98 -24 17 -7 59 -17 94 -21 36 -3 77 -13 92 -20 15 -8 65 -19
111 -24 45 -5 102 -17 125 -25 24 -8 71 -18 105 -21 35 -4 95 -15 133 -25 39
-10 105 -21 147 -24 43 -4 96 -13 117 -21 22 -7 84 -17 138 -20 54 -4 134 -15
178 -25 44 -10 138 -21 210 -25 71 -4 163 -13 204 -21 213 -41 1570 -44 1701
-4 19 6 101 17 182 25 81 8 156 19 167 24 10 6 62 16 115 21 53 6 111 17 129
25 17 7 59 16 92 20 33 4 76 14 95 22 19 8 60 19 92 24 31 5 76 18 100 29 23
11 57 20 73 20 17 0 46 9 66 19 20 11 54 23 75 27 22 3 53 14 69 24 17 10 46
20 66 24 21 4 42 13 49 21 7 8 28 17 49 21 20 3 47 14 61 23 14 10 38 21 54
25 16 4 41 16 54 27 14 10 35 19 47 19 12 0 32 9 45 20 13 11 35 23 49 27 14
3 37 14 50 25 13 10 30 18 37 18 7 0 21 9 31 19 10 11 30 22 45 26 14 4 34 15
44 26 9 10 23 19 30 19 7 0 25 10 41 23 15 12 37 28 48 35 29 18 77 49 99 64
10 7 47 36 82 63 34 28 82 64 106 82 98 73 336 308 412 407 20 26 41 53 48 61
22 24 89 114 128 170 14 20 35 48 48 62 12 14 22 31 22 38 0 7 9 20 20 30 11
10 20 24 20 31 0 7 11 25 25 40 14 15 25 35 25 44 0 10 7 23 15 30 8 7 24 31
35 54 11 22 24 48 29 56 14 22 46 86 72 145 5 11 13 27 18 35 21 35 60 127 66
157 3 17 12 37 20 43 7 6 16 27 20 47 4 20 15 48 26 61 10 14 19 37 19 51 0
15 9 45 20 66 11 22 23 58 27 80 3 22 13 54 23 70 10 17 21 52 25 80 4 27 14
63 22 79 8 16 19 56 24 90 4 34 15 75 23 92 9 16 18 57 22 89 3 33 14 87 24
120 10 33 21 92 25 130 4 39 13 92 20 118 8 27 19 104 25 171 6 68 15 138 21
157 5 19 14 117 20 219 5 102 16 251 24 331 20 195 20 736 1 930 -8 79 -18
216 -21 304 -4 88 -13 192 -21 230 -8 39 -19 122 -24 185 -6 63 -17 138 -24
165 -8 28 -18 84 -22 125 -3 41 -15 100 -24 130 -10 30 -21 84 -25 120 -3 36
-13 75 -21 87 -8 12 -18 51 -23 86 -5 36 -16 77 -24 93 -8 16 -18 52 -22 79
-4 28 -15 64 -25 80 -9 17 -20 48 -23 70 -4 22 -16 58 -27 80 -11 21 -20 51
-20 66 0 14 -9 38 -20 52 -11 14 -20 33 -20 44 0 10 -11 39 -25 65 -14 26 -25
54 -25 62 0 13 -38 98 -61 136 -5 8 -14 25 -19 38 -6 12 -14 32 -20 45 -5 12
-14 29 -20 37 -5 8 -15 26 -21 40 -5 14 -23 48 -39 75 -16 28 -36 65 -45 83
-8 18 -24 41 -35 52 -11 11 -20 26 -20 33 0 8 -9 22 -19 31 -11 10 -22 28 -25
42 -4 13 -11 24 -16 24 -5 0 -17 14 -25 30 -9 17 -22 39 -30 48 -14 17 -59 75
-93 120 -9 13 -24 31 -32 40 -8 10 -28 36 -45 57 -34 45 -141 160 -229 244
-33 31 -69 65 -80 77 -12 11 -50 43 -86 72 -36 28 -75 60 -88 71 -12 12 -27
21 -32 21 -5 0 -15 8 -22 18 -7 11 -24 25 -37 32 -14 7 -30 17 -35 22 -10 8
-31 22 -91 60 -11 7 -33 23 -48 36 -16 12 -34 22 -41 22 -7 0 -21 9 -30 19
-10 11 -31 23 -47 26 -16 4 -29 11 -29 16 0 5 -20 18 -44 29 -24 10 -47 23
-50 28 -3 6 -19 13 -35 17 -16 3 -35 13 -41 21 -7 7 -30 19 -53 25 -22 6 -46
17 -54 25 -8 7 -31 18 -51 24 -20 6 -46 17 -56 25 -11 8 -28 15 -38 15 -11 0
-40 11 -66 25 -26 14 -55 25 -66 25 -10 0 -33 8 -50 19 -17 10 -48 22 -70 25
-21 4 -55 16 -75 27 -20 10 -49 19 -66 19 -17 0 -47 9 -67 20 -20 10 -60 22
-90 26 -29 4 -66 13 -81 21 -16 8 -66 21 -110 28 -45 7 -107 21 -137 29 -30 9
-71 16 -90 16 -20 0 -70 9 -111 19 -41 11 -119 22 -174 26 -55 4 -129 13 -165
21 -197 45 -1498 45 -1730 0 -41 -8 -131 -17 -200 -21 -69 -3 -152 -13 -185
-21 -33 -8 -112 -19 -175 -25 -63 -5 -138 -16 -166 -24 -29 -8 -95 -19 -149
-25 -53 -5 -105 -15 -116 -20 -10 -6 -58 -15 -107 -21 -48 -5 -105 -16 -128
-25 -23 -8 -78 -19 -122 -24 -45 -5 -94 -15 -109 -23 -15 -8 -57 -18 -93 -22
-36 -4 -81 -14 -100 -22 -19 -8 -63 -19 -98 -24 -35 -5 -76 -16 -92 -24 -16
-8 -59 -19 -95 -24 -37 -5 -72 -15 -80 -21 -7 -6 -43 -16 -80 -21 -63 -10
-168 -49 -178 -66 -2 -4 2 -42 9 -83 7 -41 18 -210 24 -375 6 -165 17 -356 25
-425 8 -69 19 -300 25 -515 6 -214 15 -435 20 -490 10 -100 20 -546 40 -1805
11 -627 4 -1617 -16 -2357 l-6 -233 -35 -44 c-27 -35 -44 -47 -82 -56 -93 -22
-184 25 -209 108 -8 26 -8 133 -2 372 12 419 12 2643 0 2960 -4 129 -13 363
-19 520 -6 157 -16 452 -21 655 -6 204 -14 406 -20 450 -5 44 -14 222 -19 395
-6 173 -17 376 -26 450 -18 160 -35 615 -25 668 3 21 18 49 33 64 35 35 121
74 181 82 27 3 60 13 72 21 12 8 49 19 82 24 33 5 73 16 89 24 15 8 53 17 84
21 30 4 68 14 84 22 16 8 58 19 95 24 36 5 82 16 102 25 20 8 63 18 95 21 32
4 70 13 86 21 15 7 67 19 115 24 48 6 102 17 120 25 17 7 60 16 95 19 34 4 91
15 127 25 36 10 99 22 140 26 41 3 92 13 114 20 21 8 91 19 155 24 63 6 137
17 163 25 27 8 95 17 151 20 56 4 152 15 212 25 61 10 184 21 275 25 90 4 189
11 220 17 30 5 123 13 205 18 183 10 865 3 955 -10z m-260 -1931 c25 -5 95
-16 155 -24 61 -8 126 -20 145 -28 19 -8 58 -18 85 -22 28 -4 64 -15 81 -26
17 -10 42 -19 55 -19 13 0 47 -11 74 -25 28 -13 57 -25 66 -25 9 0 27 -8 40
-19 13 -10 35 -22 49 -26 14 -4 36 -16 49 -26 13 -11 29 -19 36 -19 6 0 20 -9
30 -20 10 -11 27 -22 39 -26 11 -4 35 -18 51 -31 58 -46 74 -58 111 -83 44
-30 238 -221 274 -269 14 -19 37 -50 53 -70 15 -20 34 -45 42 -56 8 -11 26
-33 39 -50 13 -16 26 -40 30 -51 4 -12 15 -29 26 -39 11 -10 20 -24 20 -30 0
-7 9 -24 21 -39 31 -40 29 -120 -5 -170 -50 -74 -95 -95 -178 -82 -50 8 -92
42 -134 110 -18 28 -42 63 -53 78 -12 14 -21 31 -21 36 0 29 -235 287 -325
357 -14 11 -35 28 -48 38 -37 30 -149 100 -186 117 -13 6 -35 19 -49 30 -13
11 -33 20 -43 20 -10 0 -39 11 -65 25 -26 14 -54 25 -63 25 -9 1 -34 9 -56 20
-22 11 -55 19 -73 20 -18 0 -58 9 -90 20 -133 47 -699 45 -847 -3 -81 -26 -75
-5 -57 -202 7 -66 16 -282 22 -480 6 -198 15 -405 21 -460 30 -296 26 -3064
-5 -3500 -8 -115 -17 -320 -21 -455 -3 -135 -11 -297 -17 -360 -16 -177 -19
-162 29 -186 29 -15 71 -24 130 -28 48 -4 140 -12 204 -18 95 -9 154 -7 324 7
123 10 223 23 244 32 19 8 62 19 94 23 33 5 66 15 76 24 9 8 34 18 56 22 22 4
51 15 64 25 13 11 31 19 41 19 10 0 28 9 42 19 13 11 36 23 51 26 14 4 33 15
43 26 9 10 23 19 30 19 7 0 26 11 42 25 17 14 34 25 39 25 5 0 19 10 31 23 11
12 42 40 68 62 74 62 171 164 229 240 11 14 30 36 43 47 12 12 22 27 22 34 0
7 11 26 25 42 14 17 25 34 25 39 0 6 9 18 19 27 11 10 22 29 26 43 3 15 15 38
26 51 10 14 19 32 19 42 0 9 9 27 19 39 11 13 23 37 26 54 4 18 14 40 22 49 8
9 19 36 24 60 6 23 17 50 24 59 8 8 19 39 25 67 5 29 16 62 24 74 8 13 17 43
21 68 4 25 15 65 25 90 9 25 20 70 24 101 3 31 12 71 20 90 7 19 19 78 25 133
6 54 16 107 22 117 5 11 14 86 19 167 6 81 12 165 15 187 4 22 11 74 16 115
16 125 13 808 -5 920 -8 52 -18 151 -21 220 -4 69 -15 161 -25 205 -10 44 -21
116 -25 159 -3 44 -13 92 -21 108 -8 15 -19 61 -24 100 -5 40 -16 90 -24 110
-20 47 -20 82 -1 98 8 7 15 18 15 25 0 38 94 105 149 105 13 0 46 -10 73 -22
61 -27 102 -94 112 -179 3 -31 12 -72 20 -90 8 -19 20 -72 26 -118 6 -45 16
-94 21 -108 5 -14 16 -87 24 -162 8 -75 20 -154 25 -176 6 -22 16 -203 22
-402 13 -414 0 -1012 -26 -1114 -7 -30 -17 -100 -21 -154 -4 -55 -14 -119 -21
-145 -8 -25 -19 -83 -25 -129 -5 -46 -14 -92 -20 -103 -6 -11 -17 -57 -25
-101 -8 -44 -19 -86 -24 -92 -6 -7 -15 -38 -21 -70 -6 -32 -19 -74 -30 -94
-10 -20 -19 -46 -19 -60 0 -13 -9 -38 -19 -55 -10 -17 -22 -47 -26 -66 -4 -19
-16 -46 -26 -59 -11 -13 -19 -33 -19 -45 0 -12 -11 -37 -25 -56 -14 -19 -25
-44 -25 -55 0 -12 -9 -30 -19 -39 -11 -10 -23 -31 -26 -46 -3 -15 -15 -36 -26
-46 -10 -9 -19 -25 -19 -34 0 -10 -7 -24 -17 -31 -9 -8 -22 -29 -30 -46 -7
-18 -17 -33 -22 -33 -6 0 -12 -8 -16 -19 -3 -10 -16 -30 -28 -44 -12 -14 -33
-42 -47 -62 -68 -98 -264 -294 -366 -365 -19 -14 -48 -35 -64 -47 -15 -13 -32
-23 -37 -23 -6 0 -18 -9 -28 -20 -9 -10 -32 -24 -50 -30 -18 -6 -36 -17 -38
-24 -3 -8 -21 -16 -40 -20 -19 -3 -42 -15 -52 -26 -10 -11 -26 -20 -36 -20
-10 0 -39 -11 -65 -25 -26 -14 -54 -25 -63 -25 -9 0 -26 -7 -38 -15 -12 -9
-48 -20 -80 -26 -32 -6 -69 -17 -84 -24 -14 -8 -65 -19 -113 -25 -47 -6 -99
-16 -114 -22 -70 -28 -646 -28 -699 1 -13 6 -68 16 -123 21 -55 5 -113 16
-128 24 -16 8 -52 18 -81 22 -60 8 -145 66 -162 112 -11 29 6 590 21 712 5 36
14 263 19 505 6 242 16 566 22 720 18 449 23 1272 10 1689 -7 210 -18 649 -26
976 -9 327 -20 631 -25 675 -13 107 -33 700 -25 733 16 64 103 125 196 137 30
3 80 15 112 26 31 10 78 19 105 20 26 0 92 9 147 19 113 21 436 27 515 9z
m-4118 -223 l55 -55 7 -248 c4 -136 11 -291 16 -343 45 -453 45 -4389 0 -4910
-5 -63 -14 -268 -20 -455 -6 -187 -17 -414 -25 -505 -8 -91 -19 -280 -25 -420
-6 -140 -15 -273 -20 -295 -5 -22 -14 -141 -20 -265 -11 -255 -17 -332 -30
-365 -9 -25 -11 -23 85 -63 28 -11 68 -24 90 -27 22 -4 49 -13 61 -20 11 -7
46 -18 77 -24 31 -6 67 -17 79 -24 13 -8 42 -17 64 -21 23 -3 61 -15 85 -26
24 -11 60 -20 79 -20 19 0 54 -9 77 -20 23 -10 64 -22 90 -26 26 -4 70 -15 96
-25 26 -11 60 -19 76 -19 16 0 63 -11 105 -25 42 -14 90 -25 106 -25 16 0 51
-8 77 -19 26 -10 79 -22 116 -26 38 -4 84 -13 103 -21 19 -8 69 -19 110 -24
42 -5 94 -16 117 -24 23 -8 74 -17 112 -21 39 -4 102 -15 140 -25 39 -10 104
-21 145 -25 41 -3 100 -13 131 -20 30 -8 105 -19 165 -24 60 -6 136 -17 169
-25 33 -8 121 -17 195 -21 74 -4 164 -13 200 -21 209 -46 1639 -49 1815 -4 22
6 111 17 197 25 87 8 167 19 178 25 12 6 64 16 117 21 53 6 112 16 130 24 19
8 65 17 101 21 37 3 85 14 108 24 22 9 66 20 98 24 32 4 76 16 99 27 23 10 56
19 72 19 17 0 46 8 65 19 19 10 55 22 80 26 25 4 59 16 76 26 17 10 42 19 55
19 13 0 47 11 74 25 28 13 59 25 70 25 11 0 34 9 50 20 17 11 37 20 46 20 9 0
36 11 61 24 25 13 59 27 76 31 18 3 32 11 32 15 0 5 19 15 43 21 23 7 51 20
62 30 11 9 35 20 53 24 18 4 36 13 39 20 2 8 19 17 36 21 18 3 40 13 49 21 20
18 69 46 121 69 20 9 37 20 37 24 0 4 18 15 40 24 22 9 40 20 40 26 0 6 10 14
23 19 13 5 45 24 71 42 26 19 60 42 74 51 51 33 65 43 128 93 35 28 80 63 101
78 64 48 170 146 302 279 178 180 200 204 261 283 29 39 72 93 94 122 23 28
52 68 66 88 14 20 35 49 48 65 12 15 22 31 22 35 0 4 11 20 25 37 14 16 25 36
25 43 0 8 6 18 14 22 8 4 21 24 30 43 27 55 53 100 70 119 9 10 16 22 16 27 0
6 11 25 25 44 14 19 25 42 25 52 0 9 9 25 19 35 11 10 23 32 27 48 3 17 15 39
24 50 10 11 21 34 25 52 3 17 13 37 20 43 8 7 17 27 21 46 3 18 14 43 24 54
10 11 21 37 25 57 3 20 15 47 25 62 10 14 21 42 24 62 4 21 13 42 20 49 8 6
18 30 21 53 4 23 16 56 26 73 10 17 19 41 19 53 0 12 11 48 25 81 14 33 25 71
25 85 0 14 9 42 20 62 11 21 20 45 20 53 0 9 17 32 38 52 78 74 186 68 253
-15 32 -39 34 -47 33 -112 -1 -51 -7 -81 -22 -110 -12 -21 -22 -51 -22 -65 0
-14 -9 -44 -20 -68 -10 -23 -22 -59 -26 -79 -4 -20 -15 -51 -25 -67 -9 -17
-20 -50 -24 -73 -4 -23 -13 -47 -21 -53 -7 -7 -16 -28 -20 -49 -3 -20 -14 -47
-23 -61 -10 -14 -21 -40 -24 -58 -4 -19 -16 -45 -27 -59 -11 -14 -20 -36 -20
-48 0 -12 -9 -33 -19 -47 -11 -13 -23 -38 -27 -54 -4 -16 -15 -40 -26 -53 -10
-13 -18 -31 -18 -40 0 -10 -11 -32 -25 -51 -14 -19 -25 -39 -25 -46 0 -6 -9
-22 -19 -36 -11 -13 -23 -36 -26 -51 -4 -14 -15 -33 -26 -43 -10 -9 -19 -25
-19 -34 0 -9 -9 -25 -20 -35 -11 -10 -20 -24 -20 -31 0 -7 -11 -26 -25 -42
-14 -17 -25 -34 -25 -38 0 -5 -18 -34 -40 -64 -22 -30 -46 -68 -53 -85 -8 -16
-21 -36 -30 -44 -10 -7 -17 -18 -17 -24 0 -5 -10 -20 -22 -32 -13 -12 -34 -39
-48 -59 -27 -41 -114 -152 -136 -176 -7 -8 -40 -46 -71 -85 -78 -94 -314 -331
-405 -405 -40 -33 -80 -66 -88 -74 -14 -13 -126 -102 -182 -146 -14 -11 -31
-20 -37 -20 -6 0 -15 -9 -21 -20 -6 -11 -16 -20 -21 -20 -6 0 -24 -11 -41 -25
-16 -14 -36 -25 -43 -25 -8 0 -20 -8 -27 -18 -7 -9 -24 -23 -38 -30 -56 -29
-88 -49 -115 -70 -15 -12 -33 -22 -40 -22 -7 0 -18 -7 -25 -15 -6 -8 -45 -31
-85 -51 -41 -20 -79 -42 -85 -49 -6 -7 -24 -15 -41 -19 -17 -3 -42 -15 -56
-26 -14 -11 -33 -20 -43 -20 -10 0 -28 -9 -42 -19 -13 -11 -38 -23 -54 -27
-16 -4 -39 -15 -51 -24 -13 -10 -38 -21 -57 -24 -19 -4 -39 -13 -46 -21 -7 -8
-28 -17 -49 -21 -20 -4 -49 -14 -66 -24 -16 -10 -46 -21 -65 -25 -19 -4 -42
-13 -50 -21 -9 -7 -37 -18 -64 -24 -26 -6 -60 -17 -75 -24 -15 -8 -45 -17 -66
-21 -22 -4 -50 -14 -63 -22 -12 -7 -48 -19 -80 -24 -31 -6 -68 -17 -83 -24
-14 -8 -50 -17 -80 -21 -30 -4 -67 -13 -82 -21 -16 -8 -66 -20 -112 -28 -45
-7 -91 -18 -102 -23 -10 -6 -65 -16 -121 -22 -56 -6 -117 -17 -135 -25 -19 -8
-69 -17 -113 -20 -43 -4 -126 -15 -184 -25 -58 -10 -172 -21 -255 -24 -215 -9
-319 -17 -305 -26 26 -16 -73 -20 -524 -20 -455 0 -561 4 -535 20 6 5 -35 10
-92 14 -57 3 -190 10 -294 16 -105 5 -206 15 -225 20 -19 6 -103 15 -186 20
-82 6 -173 17 -200 25 -27 8 -102 19 -166 25 -64 5 -129 15 -144 20 -16 6 -75
17 -133 25 -59 8 -122 20 -141 28 -19 8 -71 17 -115 20 -44 3 -100 13 -125 22
-25 9 -72 19 -105 22 -33 3 -80 14 -105 23 -25 10 -73 20 -106 24 -34 4 -87
16 -118 26 -30 11 -70 20 -88 20 -18 1 -51 8 -73 16 -22 9 -73 22 -114 29 -40
8 -79 19 -86 25 -8 6 -42 15 -78 20 -35 5 -83 18 -108 29 -24 12 -57 21 -72
21 -15 0 -47 8 -70 19 -23 10 -64 22 -91 26 -27 4 -65 15 -85 26 -20 10 -47
19 -61 19 -14 0 -41 8 -60 19 -19 10 -55 22 -80 26 -25 4 -61 16 -80 26 -19
11 -46 19 -60 19 -14 0 -43 9 -65 20 -21 11 -53 23 -71 26 -37 7 -99 67 -108
106 -8 35 12 469 24 528 5 25 14 149 20 275 6 127 17 277 25 335 8 58 19 252
25 432 5 180 16 398 25 485 8 87 20 381 26 653 6 272 15 531 20 575 5 44 11
667 15 1385 6 1259 3 1440 -25 2205 -22 562 -31 1099 -20 1142 9 32 22 51 57
78 40 31 52 35 103 35 56 0 58 -1 111 -54z"/>
</g>
</svg>
